<?xml version="1.0" encoding="UTF-8"?>
<svg id="Layer_1" data-name="Layer 1" xmlns="http://www.w3.org/2000/svg" viewBox="0 0 803.14 674.99">
  <defs>
    <style>
      .cls-1 {
        fill: #eaddcc;
      }

      .cls-2 {
        fill: #e26d26;
      }

      .cls-3 {
        fill: #023443;
      }

      .cls-4 {
        fill: #a34c24;
      }
    </style>
  </defs>
  <path class="cls-1" d="M16.33,562.57h770.48V192.26c0-27.49-12.67-54.39-36.64-77.8-20.59-20.11-49.35-37.87-85.49-52.81-70.74-29.23-164.19-45.32-263.11-45.32s-192.37,16.1-263.11,45.32c-36.14,14.93-64.91,32.7-85.49,52.81-23.97,23.41-36.64,50.31-36.64,77.8v370.31Z"/>
  <g>
    <g>
      <path class="cls-3" d="M56.7,504.61h.21c0,2.14,2.42,3.04,5.53,3.04h23.03c2.35,0,4.22-.9,4.22-3.04h.21v11.62h-.21c0-2.14-1.87-3.04-4.22-3.04h-23.03c-3.11,0-5.53.9-5.53,3.04h-.21v-11.62Z"/>
      <path class="cls-3" d="M149.36,534.76v-.35c2.21,0,3.94-1.45,3.94-5.88v-14.31h-16.59v14.24c0,4.49,1.73,5.95,3.94,5.95v.35h-18.95v-.35c2.21,0,3.94-1.45,3.94-5.88v-35.89c0-4.49-1.73-5.95-3.94-5.95v-.35h18.95v.35c-2.21,0-3.94,1.45-3.94,5.88v12.65h16.59v-12.58c0-4.49-1.73-5.95-3.94-5.95v-.35h18.95v.35c-2.21,0-3.94,1.45-3.94,5.88v35.89c0,4.49,1.73,5.95,3.94,5.95v.35h-18.95Z"/>
      <path class="cls-3" d="M189.53,495.35v10.23h8.78c4.49,0,5.95-1.73,5.95-3.94h.35l1.18,16.87-.35-.07c-.55-2.35-1.73-3.87-5.74-3.87h-10.16v11.13h9.89c5.67,0,8.57-.76,10.3-4.7h.35l-1.66,13.76h-33.81v-.35c2.21,0,3.87-1.45,3.87-5.95v-35.89c0-4.43-1.66-5.88-3.87-5.88v-.35h33.47l1.11,12.38h-.35c-.55-2.84-3.8-3.39-7.05-3.39h-12.24Z"/>
      <path class="cls-3" d="M213.6,534.76v-.35c2.21,0,4.43-1.45,5.88-5.95l11.89-35.89c1.52-4.43.28-5.88-1.94-5.88v-.35h18.32v.35c-2.21,0-3.32,1.45-1.8,5.88l11.89,35.89c1.45,4.49,3.66,5.95,5.88,5.95v.35h-19.08v-.35c2.21,0,3.32-1.45,1.87-5.95l-1.04-3.11c-2.21.28-5.12.42-7.95.42-2.28,0-4.56-.07-6.43-.28l-1.04,2.97c-1.45,4.49-.35,5.95,1.87,5.95v.35h-18.32ZM233.51,518.03c3.04.21,6.64.14,9.47-.07l-4.7-14.24-4.77,14.31Z"/>
      <path class="cls-3" d="M272.1,534.41c2.21,0,3.94-1.45,3.94-5.95v-33.4h-4.49c-5.67,0-8.5,1.11-10.23,5.05h-.35l1.66-13.76h37.96l1.59,13.76h-.28c-1.8-3.94-4.63-5.05-10.3-5.05h-4.49v34.3c.21,3.8,1.87,5.05,3.94,5.05v.35h-18.95v-.35Z"/>
      <path class="cls-3" d="M307.43,534.76v-.35c2.14,0,3.87-1.45,3.87-5.95v-35.89c0-4.43-1.73-5.88-3.87-5.88v-.35h18.88v.35c-2.21,0-3.94,1.45-3.94,5.88v35.89c0,4.49,1.73,5.95,3.94,5.95v.35h-18.88Z"/>
      <path class="cls-3" d="M332.6,534.76v-.35c2.14,0,3.87-1.45,3.87-5.95v-35.89c0-4.43-1.73-5.88-3.87-5.88v-.35h18.53v.35c-2.21,0-3.94,1.45-3.94,5.88,0,6.36,9.68,10.37,16.53,17.63v-17.63c0-4.43-1.66-5.88-3.87-5.88v-.35h18.53v.35c-2.21,0-3.94,1.45-3.94,5.88v35.89c0,4.49,1.73,5.95,3.94,5.95v.35h-18.53v-.35c2.21,0,3.87-1.45,3.87-5.95,0-7.61-9.47-12.45-16.53-19.64v19.64c0,4.49,1.73,5.95,3.94,5.95v.35h-18.53Z"/>
      <path class="cls-3" d="M419.45,516.16v-.48c-8.37,0-12.45.55-14.04,2.77h-.35l1.52-10.16h22.4v26.48h-.35c-.83-2.42-3.46-3.73-5.95-3.73-1.18,0-2.35.28-3.25.97-3.11,2.07-7.05,3.32-12.03,3.32-14.38,0-24.75-7.88-24.75-24.75s12.1-24.75,25.31-24.75c10.58,0,16.94,4.7,20.47,10.3.9,1.38,2.42,3.39,3.39,3.11l.07.35-15.9,4.43-.07-.35.55-.28c1.04-.55,1.04-2.63.69-3.8-.9-2.7-3.8-4.77-8.3-4.77-8.85,0-14.45,5.46-14.45,15.76s5.95,15.35,13.35,15.35c5.95,0,11.41-3.18,11.69-9.75Z"/>
      <path class="cls-3" d="M503.8,534.41c1.18,0,2.7-1.31.76-2.97l-4.36-3.66c-4.98,6.29-10.1,8.64-17.49,8.64-10.79,0-18.67-5.25-18.67-14.04,0-6.85,4.29-11.55,13.28-13.9l-1.8-1.52c-3.46-2.9-4.7-6.78-4.7-9.75,0-6.15,5.88-11.62,16.46-11.62,8.5,0,16.46,3.39,16.46,11.75,0,5.67-4.77,10.16-9.54,12.31l5.67,4.98c3.39-5.32,8.57-12.52,17.42-13.83l5.05,11.2h-.35c-1.11-.97-2.35-1.38-3.73-1.38-4.43,0-9.82,4.56-12.65,8.85l11.69,10.1c2.63,2.28,5.81,4.84,8.23,4.84v.35h-21.71v-.35ZM483.54,513.74c-4.98,1.73-8.44,4.22-8.44,7.88,0,4.36,4.01,6.22,8.71,6.22,3.94,0,7.47-2.42,10.16-5.32l-10.44-8.78ZM494.05,496.52c-.28-2.56-2.42-4.84-6.15-4.84s-5.74,2.42-5.74,4.91c0,1.66.9,3.6,2.49,4.91l3.8,3.25c3.46-1.66,6.02-4.77,5.6-8.23Z"/>
      <path class="cls-3" d="M556.7,534.76v-.35c2.21,0,4.43-1.45,5.88-5.95l11.89-35.89c1.52-4.43.28-5.88-1.94-5.88v-.35h18.32v.35c-2.21,0-3.32,1.45-1.8,5.88l11.89,35.89c1.45,4.49,3.66,5.95,5.88,5.95v.35h-19.08v-.35c2.21,0,3.32-1.45,1.87-5.95l-1.04-3.11c-2.21.28-5.12.42-7.95.42-2.28,0-4.56-.07-6.43-.28l-1.04,2.97c-1.45,4.49-.35,5.95,1.87,5.95v.35h-18.32ZM576.61,518.03c3.04.21,6.64.14,9.47-.07l-4.7-14.24-4.77,14.31Z"/>
      <path class="cls-3" d="M611.39,534.76v-.35c2.14,0,3.87-1.45,3.87-5.95v-35.89c0-4.43-1.73-5.88-3.87-5.88v-.35h18.88v.35c-2.21,0-3.94,1.45-3.94,5.88v35.89c0,4.49,1.73,5.95,3.94,5.95v.35h-18.88Z"/>
      <path class="cls-3" d="M636.49,534.41c2.21,0,3.94-1.45,3.94-5.95v-35.89c0-4.49-1.73-5.88-3.94-5.88v-.35h25.58c9.47,0,16.25,4.49,16.25,14.59,0,7.26-4.01,10.79-9.61,12.31,5.19,2.21,7.68,6.91,8.5,13.48.35,2.97.97,7.67,4.22,7.67v.35h-17.7v-.35c2.21,0,2.28-2,2.28-5.81,0-7.4-3.25-11.48-10.03-11.48h-4.49v11.96c0,4.01,1.73,5.32,3.94,5.32v.35h-18.95v-.35ZM658.76,495.35h-7.26v12.79h7.54c4.84,0,7.54-1.94,7.54-6.22s-3.04-6.57-7.81-6.57Z"/>
      <path class="cls-3" d="M713.25,504.61h.21c0,2.14,2.42,3.04,5.53,3.04h23.03c2.35,0,4.22-.9,4.22-3.04h.21v11.62h-.21c0-2.14-1.87-3.04-4.22-3.04h-23.03c-3.11,0-5.53.9-5.53,3.04h-.21v-11.62Z"/>
      <path class="cls-3" d="M75.5,333.67v.15c-1.01,0-1.48.62-.74,2.52l2.87,7.47,2.16-7.47c.56-1.9.12-2.52-.77-2.52v-.15h7.82v.15c-.86,0-1.72.62-2.31,2.52l-3.58,11.73c-.59,1.96-.12,2.55.83,2.55l-.06.15h-8.09v-.15c.95,0,1.54-.71.8-2.81l-3.29-9.3-3.23,9.21c-.77,2.16-.12,2.9.83,2.9v.15h-7.88v-.15c.98,0,1.39-.59.8-2.52l-3.64-11.73c-.59-1.93-1.45-2.55-2.31-2.55v-.15h8.18v.15c-.92,0-1.36.62-.8,2.52l2.07,7.08,2.73-7.08c.74-1.9.21-2.52-.77-2.52v-.15h8.38Z"/>
      <path class="cls-3" d="M94.16,337.37v3.23h3.76c1.93,0,2.55-.74,2.55-1.69h.15l.5,6.67h-.15c-.24-1.04-.74-1.69-2.46-1.69h-4.36v3.14h4.24c2.43,0,3.67-.33,4.41-2.01h.15l-.71,5.75h-14.49v-.15c.95,0,1.66-.62,1.66-2.55v-11.73c0-1.9-.71-2.52-1.66-2.52v-.15h14.34l.47,5.15h-.15c-.24-1.21-1.63-1.45-3.02-1.45h-5.24Z"/>
      <path class="cls-3" d="M119.34,340.07c-.83-1.57-2.67-3.02-5.45-3.02-1.87,0-2.7.65-2.7,1.54,0,1.04,1.39,1.33,3.56,1.54,3.08.3,6.84,1.63,6.84,5.51,0,3.41-2.31,5.36-6.87,5.36-5.1,0-6.9-1.45-8.21-.09h-.15l.92-7.17h.18c.71,1.63,3.5,3.7,6.22,3.7,2.46,0,3.02-1.04,3.02-1.84,0-1.63-1.69-1.63-4.03-1.93-2.73-.33-6.4-1.24-6.4-4.92s3.23-5.33,7.79-5.33,5.69.98,7.02.33h.15l-1.72,6.31h-.18Z"/>
      <path class="cls-3" d="M127.43,350.62c.95,0,1.69-.47,1.69-1.98v-11.23h-.74c-2.43,0-3.64.47-4.38,2.16h-.15l.71-5.9h13.9l.71,5.9h-.15c-.74-1.69-1.99-2.16-4.41-2.16h-.74v11.23c0,1.27.8,1.98,1.69,1.98v.15h-8.12v-.15Z"/>
      <path class="cls-3" d="M72.14,369.56c0,4.3-2.87,6.78-7.85,6.78-1.3,0-2.46-.18-3.41-.47l.95-5.42h.15c0,1.45,1.13,1.96,2.16,1.96,2.25,0,3.26-1.36,3.26-3.23v-6.72h-2.16c-1.99,0-3.17.47-3.91,2.16h-.15l.71-5.6h11.76v.15c-.98,0-1.51.62-1.51,2.55v7.85Z"/>
      <path class="cls-3" d="M75.72,375.96c.95,0,1.69-.47,1.69-2.01v-12.27c0-1.9-.74-2.52-1.69-2.52v-.15h10.1c4.03,0,6.9,1.69,6.9,5.42,0,2.7-1.66,4.03-3.94,4.47,2.22.95,3.32,2.46,3.64,4.56.18.98.44,2.49,1.84,2.49v.15h-7.58v-.15c.95,0,.95-.68.95-2.01,0-2.52-1.36-3.91-4.27-3.91h-1.21v3.67c0,1.69.74,2.25,1.69,2.25v.15h-8.12v-.15ZM84.55,362.87h-2.4v4.21l2.49-.03c2.07,0,3.26-.62,3.26-2.01s-1.3-2.13-3.35-2.16Z"/>
      <path class="cls-3" d="M96.04,375.96c.95,0,1.69-.62,1.69-2.55v-11.73c0-1.9-.74-2.52-1.69-2.52v-.15h8.56c7.91,0,8.98,5.01,8.98,8.21,0,3.85-.65,8.89-8.92,8.89h-8.62v-.15ZM108.52,367.28c0-2.22-.68-4.38-4.12-4.41h-1.93v9.36h1.93c3.73,0,4.12-2.67,4.12-4.95Z"/>
      <path class="cls-3" d="M115.8,376.11v-.15c.95,0,1.69-.47,1.69-2.01l.03-12.24c0-1.93-.74-2.55-1.66-2.55v-.15h7.94v.15c-.95,0-1.69.62-1.69,2.55,0,2.25,3.47,4.44,5.6,6.7v-6.7c0-1.93-.71-2.55-1.66-2.55v-.15h7.94v.15c-.95,0-1.69.62-1.69,2.55l-.03,12.24c0,1.54.74,2.01,1.69,2.01v.15h-7.94v-.15c.92,0,1.63-.44,1.66-1.87-.09-1.63-3.44-3.97-5.57-6.52l-.03,6.37c0,1.54.74,2.01,1.69,2.01v.15h-7.97Z"/>
      <path class="cls-3" d="M682.49,333.67h7.47v.15c-.92,0-1.39.62-1.39,2.55v7.76c0,4.24-2.96,6.87-7.79,6.87s-7.82-2.55-7.82-6.72v-7.94c0-1.9-.68-2.52-1.54-2.52v-.15h7.94v.15c-.95,0-1.66.62-1.66,2.52v5.54c0,3.05.71,5.1,3.17,5.1s3.08-2.04,3.08-5.18v-5.69c0-1.72-.5-2.28-1.45-2.28v-.15Z"/>
      <path class="cls-3" d="M695.5,350.62c.95,0,1.69-.47,1.69-1.98v-11.23h-.74c-2.43,0-3.64.47-4.38,2.16h-.15l.71-5.9h13.9l.71,5.9h-.15c-.74-1.69-1.99-2.16-4.41-2.16h-.74v11.23c0,1.27.8,1.98,1.69,1.98v.15h-8.12v-.15Z"/>
      <path class="cls-3" d="M706.81,350.76v-.15c.95,0,1.87-.62,2.52-2.55l3.88-11.73c.65-1.9.12-2.52-.83-2.52l.06-.15h8.65v.15c-.95,0-1.42.62-.77,2.52l3.88,11.73c.65,1.93,1.6,2.55,2.52,2.55v.15h-8v-.15c.95,0,1.42-.62.77-2.55l-.24-.74h-5.42l-.27.74c-.62,1.93-.15,2.55.8,2.55v.15h-7.56ZM714.81,344.34h3.44l-1.72-5.18-1.72,5.18Z"/>
      <path class="cls-3" d="M739.31,350.76v-.15c.95,0,1.69-.47,1.69-2.01v-4.71h-6.34v4.71c0,1.54.74,2.01,1.69,2.01v.15h-8.12v-.15c.95,0,1.69-.47,1.69-2.01v-12.24c0-1.93-.74-2.55-1.69-2.55v-.15h8.12v.15c-.95,0-1.69.62-1.69,2.52v3.67h6.34v-3.64c0-1.93-.74-2.55-1.69-2.55v-.15h8.12v.15c-.95,0-1.69.62-1.69,2.52v12.27c0,1.54.74,2.01,1.69,2.01v.15h-8.12Z"/>
      <path class="cls-3" d="M691.93,359.02h7.47v.15c-.92,0-1.39.62-1.39,2.55v7.76c0,4.24-2.96,6.87-7.79,6.87s-7.82-2.55-7.82-6.72v-7.94c0-1.9-.68-2.52-1.54-2.52v-.15h7.94v.15c-.95,0-1.66.62-1.66,2.52v5.54c0,3.05.71,5.1,3.17,5.1s3.08-2.04,3.08-5.18v-5.69c0-1.72-.5-2.28-1.45-2.28v-.15Z"/>
      <path class="cls-3" d="M715.01,365.42c-.83-1.57-2.67-3.02-5.45-3.02-1.87,0-2.7.65-2.7,1.54,0,1.04,1.39,1.33,3.56,1.54,3.08.3,6.84,1.63,6.84,5.51,0,3.41-2.31,5.36-6.87,5.36-5.1,0-6.9-1.45-8.21-.09h-.15l.92-7.17h.18c.71,1.63,3.5,3.7,6.22,3.7,2.46,0,3.02-1.04,3.02-1.84,0-1.63-1.69-1.63-4.03-1.93-2.73-.33-6.4-1.24-6.4-4.92s3.23-5.33,7.79-5.33,5.69.98,7.02.33h.15l-1.72,6.31h-.18Z"/>
      <path class="cls-3" d="M718.5,376.11v-.15c.95,0,1.87-.62,2.52-2.55l3.88-11.73c.65-1.9.12-2.52-.83-2.52l.06-.15h8.65v.15c-.95,0-1.42.62-.77,2.52l3.88,11.73c.65,1.93,1.6,2.55,2.52,2.55v.15h-8v-.15c.95,0,1.42-.62.77-2.55l-.24-.74h-5.42l-.27.74c-.62,1.93-.15,2.55.8,2.55v.15h-7.56ZM726.5,369.68h3.44l-1.72-5.18-1.72,5.18Z"/>
      <path class="cls-3" d="M129.62,151.5l8.21,16.74c1.87,3.81,4.13,5.39,10.4,7.44,2.11.72,3.67,1.44,4.79,3.72,1.07,2.17,1.05,4.34-1.99,5.83-1.74.85-2.88.74-5.7,1.31-2.98.79-6.41,2.06-9.88,3.77-4.13,2.03-8.05,4.49-11.26,7.01-1.85,1.45-2.94,2.52-4.25,3.16-2.61,1.28-4.38-.41-5.34-2.37-1.07-2.17-.67-3.85.15-6.01,2.11-6.16,2.34-8.97.48-12.78l-20.26-41.31c-1.87-3.81-4.24-5.34-10.39-7.44-2.22-.67-3.78-1.38-4.85-3.56-.96-1.96-1.21-4.4,1.4-5.68,1.31-.64,2.82-.84,5.1-1.42,3.36-.84,6.19-1.96,8.58-3.13,6.52-3.2,10.56-7.34,17.41-10.7l10.76-5.28c14.57-7.15,29.28-5.46,36.75,9.76,5.17,10.55,3.04,19.95-4.59,26.93l16.84,13.99c3.28,2.84,6.14,4.27,9.17,4.67,5.63.75,7.72,2.55,8.63,4.4,1.44,2.94-.04,5.69-2.65,6.97-1.63.8-2.98.79-6.73,1.68-2.88.74-5.16,1.59-7.11,2.54-2.39,1.17-4.51,2.62-7.13,4.71-2.07,1.83-3.16,2.9-4.36,3.49-2.61,1.28-5.85.44-7.08-2.06-.91-1.85-.02-4.71-.6-6.45-.95-3.04-3.54-5.01-6.82-7.85l-13.45-12.02c-.97-.87-2.38-.99-3.57-.41l-.65.32ZM117.57,126.93l8.21,16.74,5.33-2.61c7.5-3.68,9.5-9.51,5.18-18.32-3.84-7.83-10.29-13.56-17.25-10.15-5.87,2.88-4.34,8.47-1.46,14.34Z"/>
      <path class="cls-3" d="M198.42,142.3l-12.48-44.29c-1.15-4.08-3.2-6.02-8.88-9.2-2.06-1.06-3.47-2.04-4.13-4.37-.59-2.1-.4-4.54,2.4-5.33,1.4-.39,2.93-.32,5.27-.48,3.46-.22,6.44-.81,9-1.53,6.99-1.97,11.71-5.31,19.06-7.38l23.43-6.6c3.15-.89,5.82.12,6.52,3.95.44,2.01.31,4.69.67,6.86.62,3.1,2.39,5.36,3.05,8.58.39,2.28.09,3.88-2.83,4.7-2.68.76-5.02.03-6.51-2.57l-.53-.98c-3.9-6.7-9.75-8.7-17.21-6.6l-1.63.46c-5.48,1.54-5.35,6.92-3.44,13.68l5.06,17.95,4.31-1.21c3.96-1.12,5.69-4.37,7.41-7.62,2.51-4.48,3.47-6.01,5.8-6.66,2.1-.59,4.58-.28,5.36,2.52.36,1.28.32,2.93.2,5.61.05,4.64.23,5.72,2.26,8.92,1.79,2.77,2.66,3.65,3.16,5.4.92,3.26-.65,4.84-2.98,5.49-2.45.69-4.06-.12-8.54-2.63-3.17-1.87-6.34-3.75-10.3-2.63l-4.31,1.21,5.06,17.95c1.9,6.76,4.6,11.41,10.08,9.87l1.63-.46c7.46-2.1,11.4-6.86,11.23-14.61l-.06-1.11c-.09-2.99,1.53-4.83,4.21-5.59,2.91-.82,4.01.38,4.86,2.53,1.12,3.08.79,5.94,1.88,8.91.82,2.03,2.33,4.25,3,6.2,1.4,3.63-.35,5.89-3.5,6.77l-23.43,6.6c-7.34,2.07-13.11,1.68-20.11,3.65-2.56.72-5.41,1.78-8.48,3.39-2.08,1.09-3.35,1.95-4.75,2.34-2.8.79-4.24-1.2-4.83-3.3-.66-2.33.03-3.91,1.24-5.88,3.18-5.68,3.92-8.4,2.77-12.48Z"/>
      <path class="cls-3" d="M333.14,107.36c2.48,16.77-11.32,31.05-33.72,34.36-9.46,1.4-17.67.53-24.82,1.84-9.19,1.6-11.93-2.03-9.69-5.91,1.85-3.21,5.29-3.96,6.51-6.47,1.44-3.52-1.56-10.54-.4-14.26.51-1.54,1.68-2.7,3.24-2.93,2.52-.37,5.98,1.56,9.13,7.95,1.8,3.9,5.15,12.46,16.29,10.81,8.03-1.19,13.72-6.56,12.76-13.03-2.62-17.73-48.97-3.41-53.53-34.19-2.55-17.25,10.36-30.91,32.4-34.17,9.34-1.38,17.55-.51,24.7-1.82,9.19-1.6,11.91,1.91,9.69,5.91-1.85,3.21-5.29,3.96-6.39,6.45-1.56,3.54,1.56,10.54.28,14.28-.39,1.53-1.56,2.68-3.12,2.91-2.52.37-5.98-1.56-9.13-7.95-1.92-3.88-5.27-12.44-16.17-10.83-7.31,1.08-12.45,6-11.55,12.11,2.6,17.61,49.17,5.58,53.51,34.92Z"/>
      <path class="cls-3" d="M381.18,43.82c23.97-.63,43.66,16.05,44.4,44.13.74,28.08-18.06,45.77-42.02,46.4-24.21.64-44.39-16.03-45.12-44.11-.74-28.08,18.54-45.79,42.75-46.42ZM383.32,125.52c9.44-.25,16.61-8.55,15.87-36.87-.74-28.32-8.34-36.24-17.78-35.99-9.56.25-17.34,8.57-16.59,36.89.74,28.32,8.94,36.22,18.51,35.97Z"/>
      <path class="cls-3" d="M457.86,113.98c-.54,7,.4,12.29,6.07,12.73l1.69.13c7.73.59,13.06-2.52,15.57-9.86l.32-1.07c.95-2.84,3.1-4.01,5.88-3.8,3.02.23,3.63,1.74,3.7,4.05,0,3.28-1.3,5.85-1.3,9.01.08,2.19.73,4.79.69,6.85.07,3.89-2.36,5.41-5.62,5.16l-24.27-1.86c-7.61-.58-12.89-2.93-20.13-3.48-2.66-.2-5.69-.19-9.13.27-2.33.31-3.82.68-5.26.57-2.9-.22-3.57-2.58-3.4-4.75.18-2.41,1.37-3.66,3.18-5.1,4.94-4.24,6.57-6.54,6.89-10.77l3.51-45.88c.32-4.23-.94-6.75-5.18-11.69-1.57-1.7-2.56-3.11-2.37-5.52.17-2.17,1.19-4.4,4.08-4.18,1.45.11,2.86.7,5.12,1.36,3.92,1.15,8.47,1.98,13.06,2.33,3.86.3,7.51.21,10.58-.16,2.83-.51,3.84-1.04,5.78-.89,3.38.26,4.2,2.26,4.02,4.56-.2,2.66-1.39,3.9-3.08,5.35-5.06,4.23-6.57,6.54-6.89,10.77l-3.51,45.88Z"/>
      <path class="cls-3" d="M522.3,144.67c-19.41-3.55-27.3-14.96-23.75-34.37l6.96-38.11c.76-4.17-.23-6.81-3.93-12.16-1.38-1.85-2.22-3.36-1.78-5.74.39-2.14,1.64-4.25,4.5-3.73,1.43.26,2.77,1,4.95,1.89,3.78,1.55,8.22,2.86,12.74,3.68,3.81.7,7.45.99,10.54.94,2.87-.21,3.93-.64,5.84-.29,3.33.61,3.94,2.69,3.53,4.95-.48,2.62-1.79,3.73-3.62,5-5.47,3.68-7.22,5.82-7.98,9.99l-7.53,41.21c-1.52,8.34,1.57,14.32,9.91,15.84,8.22,1.5,13.34-2.98,14.87-11.31l7.53-41.21c.76-4.17-1.42-7.03-3.59-10.01-2.92-4.23-3.87-5.75-3.44-8.14.39-2.14,1.76-4.23,4.62-3.71,1.31.24,2.77,1,5.12,2.29,2.27,1.03,3.64,1.65,4.95,1.89,1.19.22,2.31.18,4.06,0,3.27-.39,4.45-.79,6.24-.46,3.33.61,4.06,2.71,3.64,4.97-.48,2.62-1.91,3.71-6.14,6.63-3.08,2.02-6.13,3.93-6.89,8.09l-6.96,38.11c-3.55,19.41-14.96,27.3-34.37,23.75Z"/>
      <path class="cls-3" d="M613.12,157.14c1.13,2.02,1.76,3.62.99,6.04-.74,2.31-2.25,3.85-5.48,2.82-1.85-.59-2.58-1.46-5.01-3.01-2.7-1.5-6.05-2.96-9.74-4.14-4.38-1.4-8.91-2.35-12.97-2.76-2.34-.24-3.99-.26-5.25-.67-2.77-.89-2.87-3.34-2.21-5.41.74-2.31,2.18-3.24,4.28-4.22,5.79-2.98,7.79-4.88,9.09-8.91l17.79-55.46-.69-.22c-7.26-2.33-13.29-.58-17.32,6.02l-.56.96c-1.7,2.51-3.95,3.18-6.6,2.33-2.88-.92-3.13-2.53-2.66-4.79.65-3.22,2.62-5.39,3.35-8.46.44-2.15.29-4.87.8-6.86.84-3.8,3.66-4.67,6.77-3.68l15.45,4.96c6.11,1.96,10.13,5.28,15.55,7.02,5.53,1.77,10.74,1.41,16.85,3.37l15.45,4.95c3.11,1,4.9,3.35,3.37,6.93-.74,1.92-2.44,4.05-3.34,6.05-1.19,2.92-.97,5.79-2.2,8.83-.93,2.12-2.07,3.28-4.95,2.35-2.65-.85-4.09-2.71-4.01-5.74l.1-1.11c.56-7.7-3.32-12.64-10.59-14.97l-.81-.26-17.79,55.46c-1.29,4.04-.65,6.78,2.33,12.57Z"/>
      <path class="cls-3" d="M642.4,156.11l21.02-40.93c1.94-3.77,1.75-6.59-.24-12.78-.79-2.17-1.15-3.86-.04-6.01,1-1.94,2.8-3.6,5.39-2.27,1.29.66,2.36,1.76,4.19,3.24,2.68,2.19,5.27,3.79,7.64,5.01,6.46,3.32,12.19,4.08,18.98,7.57l21.65,11.12c2.91,1.49,4.18,4.05,2.09,7.33-1.05,1.78-2.96,3.65-4.17,5.48-1.65,2.69-1.9,5.56-3.61,8.36-1.27,1.94-2.58,2.9-5.27,1.51-2.48-1.27-3.7-3.4-3.02-6.31l.28-1.08c1.71-7.56-1.21-13.01-8.11-16.55l-1.51-.77c-5.06-2.6-8.63,1.42-11.83,7.67l-8.52,16.59,3.99,2.05c3.66,1.88,7.14.67,10.62-.54,4.89-1.57,6.63-2.04,8.78-.94,1.94,1,3.54,2.91,2.22,5.49-.61,1.18-1.76,2.36-3.67,4.24-3.12,3.43-3.73,4.35-4.42,8.08-.58,3.24-.54,4.49-1.37,6.11-1.55,3.02-3.77,3.1-5.92,1.99-2.26-1.16-2.89-2.85-4.47-7.74-1.05-3.53-2.09-7.06-5.75-8.94l-3.99-2.05-8.52,16.59c-3.21,6.25-4.4,11.49.66,14.09l1.51.77c6.89,3.54,13.02,2.74,18.18-3.06l.71-.86c1.97-2.25,4.41-2.5,6.89-1.23,2.69,1.38,2.68,3.01,1.84,5.16-1.28,3.02-3.46,4.89-4.69,7.8-.78,2.05-1.19,4.7-2.02,6.59-1.45,3.61-4.27,4.07-7.18,2.58l-21.65-11.12c-6.79-3.48-10.75-7.7-17.21-11.01-2.37-1.22-5.17-2.38-8.52-3.29-2.27-.62-3.78-.85-5.07-1.52-2.59-1.33-2.29-3.76-1.29-5.7,1.11-2.15,2.68-2.84,4.91-3.47,6.2-1.99,8.59-3.48,10.53-7.25Z"/>
      <path class="cls-3" d="M803.14,674.99H0V192.26c0-31.98,14.37-62.93,41.56-89.48,22.08-21.57,52.59-40.49,90.67-56.22C204.9,16.54,300.56,0,401.57,0s196.67,16.54,269.35,46.56c38.08,15.73,68.58,34.65,90.67,56.22,27.19,26.56,41.56,57.5,41.56,89.48v482.73ZM16.33,562.57h770.48V192.26c0-27.49-12.67-54.39-36.64-77.8-20.59-20.11-49.35-37.87-85.49-52.81-70.74-29.23-164.19-45.32-263.11-45.32s-192.37,16.1-263.11,45.32c-36.14,14.93-64.91,32.7-85.49,52.81-23.97,23.41-36.64,50.31-36.64,77.8v370.31Z"/>
      <g>
        <path class="cls-1" d="M758.63,622.83l-15.29,12.36c-.28.28-.56.35-.84.35-.91,0-1.68-1.54-1.68-2.79,0-1.68,1.54-3.07,2.51-4.61l6.29-9.36-6.29-9.36c-.98-1.54-2.51-2.93-2.51-4.61,0-1.33.77-2.79,1.68-2.79.28,0,.56.07.84.35l15.29,12.36c1.82,1.47,2.51,2.16,2.51,4.33,0,1.68-1.19,2.65-2.51,3.77Z"/>
        <path class="cls-1" d="M736.59,622.83l-15.29,12.36c-.28.28-.56.35-.84.35-.91,0-1.68-1.54-1.68-2.79,0-1.68,1.54-3.07,2.51-4.61l6.29-9.36-6.29-9.36c-.98-1.54-2.51-2.93-2.51-4.61,0-1.33.77-2.79,1.68-2.79.28,0,.56.07.84.35l15.29,12.36c1.82,1.47,2.51,2.16,2.51,4.33,0,1.68-1.19,2.65-2.51,3.77Z"/>
        <path class="cls-1" d="M714.55,622.83l-15.29,12.36c-.28.28-.56.35-.84.35-.91,0-1.68-1.54-1.68-2.79,0-1.68,1.54-3.07,2.51-4.61l6.29-9.36-6.29-9.36c-.98-1.54-2.51-2.93-2.51-4.61,0-1.33.77-2.79,1.68-2.79.28,0,.56.07.84.35l15.29,12.36c1.82,1.47,2.51,2.16,2.51,4.33,0,1.68-1.19,2.65-2.51,3.77Z"/>
        <path class="cls-1" d="M42,619.06c0-2.16.7-2.86,2.51-4.33l15.29-12.36c.28-.28.56-.35.84-.35.91,0,1.68,1.47,1.68,2.79,0,1.67-1.54,3.07-2.51,4.61l-6.29,9.36,6.29,9.36c.98,1.54,2.51,2.93,2.51,4.61,0,1.26-.77,2.79-1.68,2.79-.28,0-.56-.07-.84-.35l-15.29-12.36c-1.33-1.12-2.51-2.09-2.51-3.77Z"/>
        <path class="cls-1" d="M64.04,619.06c0-2.16.7-2.86,2.51-4.33l15.29-12.36c.28-.28.56-.35.84-.35.91,0,1.68,1.47,1.68,2.79,0,1.67-1.54,3.07-2.51,4.61l-6.29,9.36,6.29,9.36c.98,1.54,2.51,2.93,2.51,4.61,0,1.26-.77,2.79-1.68,2.79-.28,0-.56-.07-.84-.35l-15.29-12.36c-1.33-1.12-2.51-2.09-2.51-3.77Z"/>
        <path class="cls-1" d="M86.08,619.06c0-2.16.7-2.86,2.51-4.33l15.29-12.36c.28-.28.56-.35.84-.35.91,0,1.68,1.47,1.68,2.79,0,1.67-1.54,3.07-2.51,4.61l-6.29,9.36,6.29,9.36c.98,1.54,2.51,2.93,2.51,4.61,0,1.26-.77,2.79-1.68,2.79-.28,0-.56-.07-.84-.35l-15.29-12.36c-1.33-1.12-2.51-2.09-2.51-3.77Z"/>
      </g>
      <g>
        <path class="cls-1" d="M146.79,607.14c0-8.89,9.1-13.55,18.84-13.55,10.8,0,17.93,4.8,17.93,13.06,0,4.66-2.33,9.31-6.56,11.72,5.36,2.26,8.89,5.15,8.89,11.01,0,10.23-8.05,14.68-21.38,14.68-11.08,0-20.32-4.02-20.32-14.11,0-4.59,2.4-10.16,8.68-12.49-3.6-2.33-6.07-5.36-6.07-10.3ZM154.13,627.67c0,5.43,5.01,8.26,10.79,8.26,6.85,0,9.39-3.1,9.39-6.21,0-4.09-7.48-5.64-14.11-8.61-.5-.21-1.06-.49-1.55-.71-2.68,1.34-4.52,4.23-4.52,7.27ZM169.93,615.75c3.31-1.27,5.01-4.66,5.01-7.62,0-3.74-3.32-6.42-9.18-6.42-4.3,0-7.69,1.69-7.69,5.5,0,4.52,7.2,6.99,11.86,8.54Z"/>
        <path class="cls-1" d="M214.24,593.59c29.78,0,29.78,50.25,0,50.25s-30.06-50.25,0-50.25ZM214.17,602.48c-14.32,0-14.32,32.46,0,32.46s14.33-32.46,0-32.46Z"/>
        <path class="cls-1" d="M247.91,601.56c0-.63-.35-1.2-1.34-.71l-4.31,1.91-.42-.63c3.53-2.05,7.97-4.8,9.17-8.05h8.19v41c0,4.52,1.76,8.05,5.79,8.05v.35h-22.87v-.35c4.02,0,5.79-3.53,5.79-8.05v-33.52Z"/>
        <path class="cls-1" d="M270.02,612.71h.21c0,2.19,2.47,3.1,5.64,3.1h23.5c2.4,0,4.3-.91,4.3-3.1h.21v11.86h-.21c0-2.19-1.91-3.1-4.3-3.1h-23.5c-3.18,0-5.64.91-5.64,3.1h-.21v-11.86Z"/>
        <path class="cls-1" d="M318.62,641.29l1.06-8.89h.35c2.05,2.4,5.43,3.46,9.17,3.46,8.96,0,13.06-7.13,14.26-14.75-2.11,3.18-6.07,6.49-12.7,6.49-11.72,0-16.73-8.11-16.73-16.23,0-8.61,5.22-17.85,20.32-17.85,13.69,0,20.18,9.81,20.18,22.72,0,17.22-9.88,27.8-25.34,27.8-5.43,0-9.24-1.84-10.59-2.75ZM343.1,609.11c-1.06-4.45-3.53-8.61-8.89-8.61s-8.89,4.02-8.89,10.44,3.67,9.6,9.1,9.6c4.94,0,9.39-5.5,8.68-11.5v.07Z"/>
        <path class="cls-1" d="M368.44,643.48c-2.96-9.81,3.32-29.14,16.09-39.87h-15.1c-3.46,0-7.13.35-8.54,3.39h-.35l1.62-12.92h32.75l1.41,8.68c-12.63,11.08-16.87,23.43-16.87,31.9,0,3.67,1.27,7.55,3.46,8.47v.35h-14.47Z"/>
        <path class="cls-1" d="M423.48,593.59c29.78,0,29.78,50.25,0,50.25s-30.06-50.25,0-50.25ZM423.41,602.48c-14.32,0-14.32,32.46,0,32.46s14.33-32.46,0-32.46Z"/>
        <path class="cls-1" d="M453.61,612.71h.21c0,2.19,2.47,3.1,5.64,3.1h23.5c2.4,0,4.3-.91,4.3-3.1h.21v11.86h-.21c0-2.19-1.91-3.1-4.3-3.1h-23.5c-3.18,0-5.64.91-5.64,3.1h-.21v-11.86Z"/>
        <path class="cls-1" d="M495.6,632.61l8.04-8.54.35.14c-3.1,5.22.07,11.64,7.2,11.64,5.86,0,9.53-3.95,9.53-11.15,0-6.77-4.52-9.53-9.25-9.53-3.39,0-6.42,1.62-7.13,3.03h-8.75l1.41-24.13h28.86l1.62,12.92h-.35c-1.34-3.04-5.15-3.39-8.68-3.39h-13.48l-.64,9.67c1.84-1.62,5.93-2.82,9.67-2.82,8.82,0,17.01,5.08,17.01,15.53s-5.43,18.07-19.27,18.07c-11.15,0-16.16-6.21-16.16-11.43Z"/>
        <path class="cls-1" d="M544.57,643.48c-2.96-9.81,3.32-29.14,16.09-39.87h-15.1c-3.46,0-7.13.35-8.54,3.39h-.35l1.62-12.92h32.75l1.41,8.68c-12.63,11.08-16.87,23.43-16.87,31.9,0,3.67,1.27,7.55,3.46,8.47v.35h-14.47Z"/>
        <path class="cls-1" d="M581.27,641.29l1.06-8.89h.35c2.05,2.4,5.43,3.46,9.17,3.46,8.96,0,13.06-7.13,14.26-14.75-2.11,3.18-6.07,6.49-12.7,6.49-11.72,0-16.73-8.11-16.73-16.23,0-8.61,5.22-17.85,20.32-17.85,13.69,0,20.18,9.81,20.18,22.72,0,17.22-9.88,27.8-25.34,27.8-5.43,0-9.24-1.84-10.59-2.75ZM605.76,609.11c-1.06-4.45-3.53-8.61-8.89-8.61s-8.89,4.02-8.89,10.44,3.67,9.6,9.1,9.6c4.94,0,9.39-5.5,8.68-11.5v.07Z"/>
        <path class="cls-1" d="M631.09,643.48c-2.96-9.81,3.32-29.14,16.09-39.87h-15.1c-3.46,0-7.13.35-8.54,3.39h-.35l1.62-12.92h32.74l1.41,8.68c-12.63,11.08-16.87,23.43-16.87,31.9,0,3.67,1.27,7.55,3.46,8.47v.35h-14.47Z"/>
      </g>
    </g>
    <g>
      <path class="cls-3" d="M618.39,337.78c-.04-10.87-9.4-12.52-17.99-14.27-.3-.06-.57-.24-.75-.49-4.48-6.43-2.37-24.63-2.62-34.25-.05-.6-.1-1.19-.17-1.78-26.94-32.97-63.57-41.87-63.57-41.87-2.93-.82-7.6-1.45-12.87-2.01-4.7-.5-9.89-.95-14.75-1.43-5.31-.38-10.6-.87-15.71-2.31-13.29-3.75-25.93-13.85-39.34-10.55,2.53,2.87,5.14,5.88,6.12,9.58.98,3.7-.24,8.28-3.71,9.89-1.76.82-3.81.76-5.74.52-13.03-1.58-24.28-10.25-37.22-12.46-6.67-1.14-13.57-.51-20.19-1.89-11.21-2.34-20.37-10.07-30.04-16.19-9.67-6.13-21.77-10.87-32.38-6.55,6.96,3.86,12.94,9.5,17.19,16.23-11.09-5.51-23.81-8.73-35.92-6.14-12.11,2.59-23.23,11.96-25.27,24.17-.5,3-.58,6.36-2.67,8.57-2.55,2.7-6.56,2.34-10.39,1.45,1.87-2.34,2.39-5.48,1.29-8.35-1.26-3.29-4.46-5.51-7.96-5.51-.86,0-1.71.13-2.55.39-5.34,1.65-9.52,5.35-12.42,10.99-8.91.74-17.64,3.66-25.11,8.57-11.64,7.65-20.05,20.04-22.98,33.65.76-.4,1.83.14,1.76,1.15-.73,11.33-1.11,28.9,6.18,36.44,1.01-.09,2.02-.19,3.18-.55,3.56-1.12,5.73-3.87,9.8-2.77,3.83,1.04,6.59,4.07,6.55,8.18-.01,1.27-.54,1.93-.06,3.26.26.71.86,1.27.46,2.16-.24.53-1.46,1.54-2,1.76-1.72.68-7.89-.67-8.8-2.37-.33-.63-.35-1.33-.3-2.01.23-.91.49-.02.99.26,1.7.96,3.42-.15,4.65-1.34.69-.66,1.2-1.38,1.6-2.2.19-.39.22-.83.11-1.25-.28-1.07-.66-2.59-1.35-3.11-.22-.17-.71-.14-.98-.08-1.53.32-3.33,2.48-4.73,3.4-2.22,1.46-6.29,2.59-9.37,2.66-.1,1.1-.14,2.19-.1,3.23.04.94.15,1.85.36,2.7.26,1.04.65,1.99,1.23,2.82.78,1.12,1.89,2.02,3.43,2.6.44.17.91.31,1.42.42.03-.02.06-.04.09-.06.94-.58,3.08-1.33,4.19-1.7,2.7-.91,6.21-1.25,8.84-.01-1.36.92-3.01,1.98-4.65,2.29-1.03.2-2.43.16-3.44.43-.68.18-1.34.46-2.03.69,1.03,1.36,2.06,2.71,3.09,4.07,7.78,10.25,15.55,20.5,23.33,30.75-7.77-10.25,15-35.63,24.99-43.98,2.85-2.38,6.13-4.9,9.82-4.55,3.97.38,6.78,3.88,9.49,6.81,7.99,8.63,19.16,14.26,30.86,15.53-.46-5.63-3.85-10.93-8.75-13.73,18.47-3,31.47,19.44,49.84,22.97,17.84,3.43,33.9-11.7,51.89-14.24,8.06-1.14,16.31.31,24.39-.69,8.08-1,16.72-5.52,18.55-13.45,1.16,2.52,2.32,5.03,3.48,7.55,9.45-8.91,19.13-17.97,30.91-23.44,11.78-5.47,26.25-6.84,37.47-.3,5.65,3.29,10.08,8.31,15.33,12.22,8.55,6.36,19.34,9.64,29.99,9.12,1.63-.08,3.28-.24,4.92-.4-1.39-2.81-2.68-5.63-3.9-8.4-.13-.28-.13-.6-.03-.89,6.71-18.38,11.07-41.43,4.27-60.54-.4-1.13.91-2.08,1.88-1.36,4.06,3.07,6.59,7.63,7.58,13.02.02.1.02.21.02.32-1.01,12.51.85,28.61,5.74,38.51.03.06.05.12.07.18,4.13,14.07,13.37,26.5,28.89,26.16.98-.02,1.53-1.14.94-1.93-3.18-4.24-4.37-8.49-4.39-14.23ZM214.31,300.69c-.25.3-.49.6-.71.88-.4.51-1.21.13-1.07-.5l.36-1.62c2.29-6.36,6.26-8.13,8.26-8.62.19-.05.37-.07.56-.09.57-.04,1.14.07,1.65.32.75.36,1.33.74,1.78,1.11,1.36,1.12,1.53,2.22,1.43,2.94-.02.15-.1.26-.2.34,0,0,0,0-.01.01-.18.13-.45.14-.65-.02-2.53-2.04-5.66-.39-8.31,1.97-1.16,1.04-2.23,2.21-3.11,3.28ZM222.3,300.15c-.23.39-.61.69-1.08.81-.26.07-.51.07-.76.03-.19-.03-.37-.1-.54-.19-.41-.23-.73-.61-.86-1.1-.07-.25-.07-.51-.03-.75.12-.66.61-1.22,1.29-1.4.35-.09.7-.07,1.01.04.44.15.81.47,1.01.89.05.11.09.22.12.34.12.47.04.95-.19,1.34ZM228.95,310.43c-.4.7-.75,1.21-.92,1.45-.07.09-.15.18-.24.24-3.83,2.84-7.06,2.06-9.14.83-.62-.37-.68-1.13-.32-1.61.16-.22.42-.38.74-.42.02,0,.04,0,.07,0,0,0,.02,0,.03,0,.18-.03.34-.09.47-.18.44-.3.58-.91.35-1.38-.1-.2-.26-.38-.5-.5-.75-.37-1.44-.78-1.95-1.1-.45-.28-.61-.83-.43-1.32,0-.02,0-.04.02-.05.13-.31.21-.62.27-.91,0-.03.01-.07.02-.1,0-.03.02-.06.03-.1.15-.55.71-.9,1.28-.77,1.15.26,2.15.29,3.03.15,1.05-.16,1.91-.56,2.63-1.08,1.52-1.11,2.35-2.79,2.78-4,.01-.03.03-.07.04-.1,0-.01.01-.03.02-.04,0,0,0,0,0,0,.33-.64,1.2-.79,1.74-.27h0s0,0,0,0c3.65,3.52,1.48,8.68,0,11.26ZM264.5,251.58c-2.73,2.45-3.47,5.54-3.32,10.34,0,.1.02.21.05.31,2.69,9.1,4.74,20.3-3.24,27.35-.03.02-.05.04-.08.07-3.86,3.02-8.36,3.93-12.64,1.09-4.3-2.85-5.12-7.4-3.8-12.11.8-4.22,5.84-6.25,9.42-7.9.36-.17.62-.51.68-.91,1.33-8.31,3.81-17.84,11.78-20.3,1.25-.38,2.13,1.19,1.15,2.06Z"/>
      <path class="cls-2" d="M223.65,262.07c7.47-4.91,16.21-7.83,25.11-8.57,2.91-5.64,7.08-9.34,12.42-10.99.84-.26,1.69-.39,2.55-.39,3.51,0,6.71,2.21,7.96,5.51,1.1,2.87.58,6.01-1.29,8.35,3.83.89,7.83,1.26,10.39-1.45,2.09-2.21,2.17-5.57,2.67-8.57,2.04-12.21,13.16-21.58,25.27-24.17,12.11-2.58,24.83.64,35.92,6.14-4.26-6.73-10.23-12.37-17.19-16.23,10.6-4.32,22.7.43,32.38,6.55,9.67,6.12,18.83,13.86,30.04,16.19,6.62,1.38,13.52.76,20.19,1.89,12.94,2.21,24.19,10.88,37.22,12.46,1.94.24,3.98.29,5.74-.52,3.47-1.61,4.69-6.2,3.71-9.89-.98-3.7-3.59-6.71-6.12-9.58,13.41-3.31,26.05,6.8,39.34,10.55,3.44.97,9.29,1.67,15.71,2.31,4.86.48,10.04.93,14.75,1.43,5.28.56,9.94,1.19,12.87,2.01,0,0,36.64,8.9,63.57,41.87-5.24-46.89-75.22-64.22-112.62-68.53-.24-.03-.47-.13-.65-.29-13.09-11.42-32.79-13.61-49.58-17.05-1-.21-1.79.85-1.3,1.75,5.05,9.26,7.79,20.82,5.56,32.29-.15.79-.89,1.09-1.51.93-.43-.11-.8-.45-.86-1.01-.67-5.27-2.48-11.19-5.04-17.08,0,0,0,0,0,0-5.17-11.9-13.4-23.65-21.51-29.57-.98-.72-.41-2.28.8-2.17.35.03.7.06,1.05.1,1.34.15,1.89-1.68.69-2.27-3.9-1.92-8.43-2.84-12.85-3.61-1.4-.25-1.3-2.28.11-2.39,2.28-.19,4.58-.24,6.87-.18,1.32.03,1.72-1.77.52-2.31-15.95-7.16-46.44-15.57-66.22-4.15-27.98,16.16-59.96,20.78-70.84,63.31-.13.51-.58.89-1.11.91-5.57.28-8.88-.95-13.22-1.02-3.62-.06-6.14-.23-9.57-.09-25.95.6-47.55,7.46-53.27,35.76-.89,3.34-2.72,10.98-5.46,14.73-.58.8.02,1.92,1.01,1.9,3.09-.07,4.96-1.11,6.27-2.92.7-.98,2.24-.43,2.17.77-.23,4.32-.17,8.64.19,12.96.09,1.13,1.55,1.51,2.2.58.46-.67.92-1.33,1.38-2.01.05-.07.1-.15.15-.22.1-.14.21-.25.33-.33.04-.02.07-.05.11-.07,2.93-13.61,11.33-26,22.98-33.65Z"/>
      <path class="cls-3" d="M352.64,406.7c-10.17-3.11-22.18-14.67-28.1-20.85-.88-.91-2.38-.03-2.02,1.19,5.05,16.89,5.73,33.77,1.83,51.46-.01.07-.04.14-.06.2-1.9,4.73-3.97,9.34-6.48,13.79-.1.18-.16.38-.16.59v7.34c0,.67.54,1.21,1.21,1.21h19.37c.67,0,1.21-.54,1.21-1.21v-7.61s0-.06,0-.09c.39-5.97,2.47-10.57,6.49-14.94.15-.16.25-.36.29-.57.74-3.58,1.48-5.72,2.23-8.65.26-1.01,1.57-1.24,2.17-.38.49.71,1.05,1.35,1.7,1.92.79.71,2.04.15,2.02-.91-.02-1.16.29-2.3.74-3.85.93-3.14,3.01-13.08-1.93-18.31-.14-.15-.32-.25-.52-.32Z"/>
      <path class="cls-3" d="M565.15,399.29c-5.22-2.73-18.85-8.83-47.87-39.98-.88-.94-2.42-.04-2.03,1.19,3.15,9.86,11.39,31.69,24.9,40.65.26.18.45.44.52.74,2.86,12.64,3.12,26.01-.97,36.68-4.07,10.66-5.65,6.08-9.29,14.14-.12.26-.15.56-.06.83.65,2.04,4.41,4.81,5.24,7.21.17.5.62.85,1.15.86,5.99.01,11.98,0,17.97,0,.67,0,1.21-.54,1.21-1.21v-7.36c0-.19.05-.39.13-.56,1.8-3.46,4.32-6,7.38-8.32.44-.33.59-.92.38-1.43-3.57-8.54.4-32.94,1.97-42.18.09-.52-.17-1.03-.63-1.27Z"/>
      <path class="cls-4" d="M542.4,338.25c-5.25-3.91-9.68-8.92-15.33-12.22-11.22-6.54-25.69-5.18-37.47.3-11.78,5.47-21.45,14.53-30.91,23.44-1.16-2.51-2.32-5.03-3.48-7.55-1.83,7.93-10.47,12.45-18.55,13.45-8.08.99-16.33-.45-24.39.69-17.99,2.54-34.05,17.67-51.89,14.24-18.37-3.54-31.37-25.98-49.84-22.97,4.9,2.79,8.29,8.1,8.75,13.73-11.69-1.28-22.87-6.9-30.86-15.53-2.71-2.93-5.52-6.44-9.49-6.81-3.69-.35-6.98,2.17-9.82,4.55-9.99,8.35-32.76,33.73-24.99,43.98.57.76,1.75.59,2.09-.3,3.81-10.07,21.54-26.03,19.97-32.25-.13-.51.06-1.06.51-1.35,8.84-5.57,12.44-1.48,19.67,5.13,11.65,10.64,16.23,14.22,31.05,17.23.54.11,1.07-.16,1.31-.65,1.86-3.79,5.63-6.62,7.56-7.89.62-.41,1.45-.17,1.76.51,7.76,17.09,27.19,29.21,43,37.83.23.13.4.31.52.55,5.05,10.71,6.76,22.19,5.2,33.93-.02.18-.09.35-.19.51-2.55,3.9-5.1,7.79-7.65,11.69-.13.19-.2.43-.2.66v7.3c0,.66.54,1.2,1.2,1.2,5.37,0,14.25,0,19.63,0,.67,0,1.2-.54,1.2-1.2,0-2.49,0-4.97,0-7.46,0-.13.02-.26.06-.38,1.41-4.26,3.79-7.53,6.99-10.61.24-.23.38-.55.38-.89-.1-7.61-.21-15.22-.31-22.83-.01-1.04,1.21-1.61,2-.93,1.35,1.19,2.66,2.41,3.87,3.72.77.83,2.14.26,2.1-.87-.01-.35-.04-.68-.07-.99-.38-3.85-1.24-7.28-2.79-10.52-.5-1.05.61-2.13,1.64-1.6,1.92.99,3.97,1.58,6.25,1.49.16,0,.3-.02.44-.03,1.13-.11,1.5-1.56.56-2.2-.23-.16-.46-.33-.71-.53-5.13-4.12-6.87-10.3-7.6-16.67,0-.02,0-.05-.01-.08-.65-3.66-1.98-6.55-4.16-9.19-.66-.8-.08-2,.96-1.98,15.77.35,79.16-9.81,111.36-47.55.55-.64,1.57-.54,1.97.21,12.72,23.48,35.07,42.19,56.84,56.34.06.04.12.07.18.1,24.09,10.32,25.66,33.54,21.5,56.49-.03.17-.1.33-.2.48-1.99,2.83-3.98,5.65-5.97,8.48-.14.2-.22.44-.22.69-.01,2.43-.02,4.85-.03,7.28,0,.67.54,1.21,1.2,1.21,4.81.01,12.94.02,17.74.03.66,0,1.2-.54,1.21-1.2,0-.34,0-.69,0-1.02,0-.14.02-.29.07-.43,1.82-4.87,5.01-9.01,8.96-12.36.27-.23.43-.57.43-.92.05-19.77-4.04-40.83-4.41-61.18,0-.47-.29-.89-.73-1.08-15.48-6.78-25.59-21.5-32.99-36.48-1.64.16-3.29.32-4.92.4-10.65.52-21.44-2.76-29.99-9.12Z"/>
    </g>
  </g>
</svg>