<?xml version="1.0" encoding="UTF-8"?>
<svg xmlns="http://www.w3.org/2000/svg" viewBox="0 0 1211.45 417.02">
  <defs>
    <style>
      .cls-1 {
        fill: #fff;
      }

      .cls-2 {
        fill: none;
      }

      .cls-3 {
        fill: #e26d26;
      }

      .cls-4 {
        fill: #023443;
      }

      .cls-5 {
        fill: #a34c24;
      }
    </style>
  </defs>
  <g id="Capa_2" data-name="Capa 2">
    <path class="cls-1" d="M1208.14,417.02H3.31c-1.83,0-3.31-1.96-3.31-4.37v-231.53C0,81.09,183.35,0,605.73,0s605.73,81.09,605.73,181.12v231.53c0,2.42-1.48,4.37-3.31,4.37Z"/>
  </g>
  <g id="Layer_1" data-name="Layer 1">
    <g>
      <g>
        <path class="cls-2" d="M89.56,229.98c.94.21,1.76.23,2.48.12-.72.11-1.54.09-2.48-.12-.46-.1-.92.18-1.05.63.12-.45.58-.73,1.04-.63h0Z"/>
        <path class="cls-2" d="M91.61,227.08c-.21.05-.42.06-.62.02.2.04.41.03.62-.02.39-.1.7-.35.88-.67-.19.32-.5.57-.88.67Z"/>
        <path class="cls-2" d="M96.46,225.95s.02-.05.03-.08c0,.03-.02.05-.03.08-.35.99-1.03,2.36-2.27,3.27,1.24-.91,1.92-2.28,2.27-3.27Z"/>
        <path class="cls-2" d="M92.55,225.05c-.17-.35-.47-.61-.83-.73.36.12.66.38.83.73Z"/>
        <path class="cls-2" d="M89.85,226.04c-.05-.21-.06-.42-.02-.62-.04.2-.03.41.02.62.1.4.37.72.7.9-.33-.19-.6-.5-.7-.9Z"/>
        <path class="cls-2" d="M324.29,178.58c-5.25-.52-10.03-1.1-12.85-1.89,4.18,1.18,8.5,1.58,12.85,1.89Z"/>
        <path class="cls-2" d="M93.37,218.98c.61.3,1.09.6,1.46.91-.37-.3-.85-.61-1.46-.91-.42-.2-.89-.29-1.35-.26.46-.03.93.06,1.35.26Z"/>
        <path class="cls-2" d="M85.96,226.85c.72-.87,1.59-1.83,2.55-2.68-.95.85-1.83,1.81-2.55,2.68Z"/>
        <path class="cls-2" d="M89.86,235.23h.05-.05c-.27.03-.47.17-.61.35.13-.18.34-.31.61-.35Z"/>
        <path class="cls-2" d="M88.48,230.76c-.05.23-.11.49-.22.74,0,.01,0,.03-.01.04,0-.01,0-.03.01-.04.11-.25.17-.51.22-.74Z"/>
        <path class="cls-2" d="M97.93,225.61c2.99,2.88,1.21,7.1,0,9.21,1.21-2.11,2.99-6.34,0-9.21h0Z"/>
        <path class="cls-2" d="M90.61,233.94c.19.39.07.88-.29,1.13.36-.25.47-.74.29-1.13Z"/>
        <path class="cls-4" d="M416.5,257.2c-.04-8.89-7.69-10.24-14.72-11.68-.25-.05-.47-.2-.62-.4-3.67-5.26-1.94-20.14-2.15-28.01-.04-.49-.08-.98-.14-1.46-22.03-26.97-52.01-34.25-52.01-34.25-2.39-.67-6.21-1.18-10.53-1.64-3.85-.41-8.09-.77-12.06-1.17-4.34-.31-8.67-.71-12.85-1.89-10.87-3.07-21.21-11.33-32.18-8.63,2.07,2.35,4.2,4.81,5.01,7.84.8,3.03-.2,6.78-3.04,8.09-1.44.67-3.11.62-4.7.43-10.66-1.3-19.86-8.39-30.45-10.19-5.46-.93-11.1-.42-16.52-1.55-9.17-1.91-16.66-8.24-24.57-13.25-7.91-5.01-17.81-8.89-26.48-5.36,5.7,3.16,10.58,7.77,14.06,13.28-9.07-4.51-19.48-7.14-29.38-5.03s-19,9.78-20.67,19.77c-.41,2.46-.47,5.2-2.18,7.01-2.09,2.21-5.37,1.91-8.5,1.18,1.53-1.92,1.95-4.48,1.06-6.83-1.03-2.69-3.65-4.5-6.51-4.5-.7,0-1.4.11-2.08.32-4.37,1.35-7.79,4.38-10.16,8.99-7.29.61-14.43,2.99-20.54,7.01-9.52,6.26-16.4,16.4-18.79,27.53.62-.33,1.49.12,1.44.94-.6,9.27-.91,23.64,5.06,29.81.83-.08,1.65-.15,2.6-.45,2.91-.91,4.69-3.17,8.02-2.27,3.14.85,5.39,3.33,5.36,6.69,0,1.04-.44,1.58-.05,2.66.21.58.7,1.04.37,1.76-.2.43-1.2,1.26-1.64,1.44-1.41.55-6.45-.55-7.2-1.94-.27-.51-.29-1.09-.24-1.64.19-.75.4-.02.81.21,1.39.79,2.8-.12,3.81-1.09.56-.54.98-1.13,1.31-1.8.16-.32.18-.68.09-1.02-.23-.87-.54-2.12-1.11-2.54-.18-.14-.58-.12-.8-.07-1.25.26-2.72,2.03-3.87,2.78-1.82,1.19-5.15,2.12-7.67,2.18-.08.9-.12,1.79-.08,2.64.03.77.12,1.51.3,2.21.21.85.53,1.63,1.01,2.31.64.91,1.55,1.65,2.81,2.13.36.14.74.25,1.16.34.02-.02.05-.03.07-.05.77-.47,2.52-1.09,3.43-1.39,2.21-.74,5.08-1.02,7.23,0-1.11.76-2.46,1.62-3.8,1.87-.85.16-1.99.13-2.82.35-.55.15-1.1.38-1.66.56.84,1.11,1.68,2.22,2.53,3.33,6.36,8.38,12.72,16.77,19.08,25.16-6.36-8.39,12.27-29.15,20.44-35.98,2.33-1.95,5.01-4.01,8.03-3.72,3.25.31,5.54,3.18,7.76,5.57,6.54,7.06,15.67,11.66,25.24,12.71-.38-4.6-3.15-8.94-7.16-11.23,15.11-2.46,25.74,15.9,40.77,18.79,14.6,2.81,27.73-9.57,42.45-11.65,6.6-.93,13.34.25,19.95-.56,6.61-.82,13.68-4.51,15.18-11,.95,2.06,1.9,4.12,2.85,6.17,7.73-7.29,15.65-14.7,25.28-19.18,9.64-4.48,21.47-5.59,30.65-.24,4.62,2.7,8.25,6.8,12.54,9.99,6.99,5.2,15.82,7.89,24.53,7.46,1.33-.06,2.68-.2,4.02-.33-1.14-2.3-2.19-4.6-3.19-6.87-.1-.23-.11-.49-.02-.73,5.49-15.04,9.05-33.89,3.49-49.53-.33-.93.75-1.7,1.53-1.11,3.32,2.51,5.39,6.24,6.2,10.65.02.08.02.17.01.26-.83,10.23.7,23.4,4.7,31.5.02.05.04.1.06.15,3.38,11.51,10.94,21.68,23.64,21.4.8-.02,1.25-.94.77-1.58-2.6-3.47-3.57-6.95-3.59-11.64l.02-.02ZM85.96,226.85c-.21.25-.4.49-.58.72-.32.42-.99.1-.87-.41l.3-1.32c1.87-5.2,5.12-6.65,6.76-7.06.15-.04.31-.06.46-.07.46-.03.93.06,1.35.26.61.3,1.09.6,1.46.91,1.11.91,1.25,1.81,1.17,2.41-.02.12-.08.22-.16.28h0c-.15.11-.37.11-.53-.02-2.07-1.66-4.63-.32-6.8,1.61-.95.85-1.83,1.81-2.55,2.68h-.01ZM92.49,226.42c-.19.32-.5.57-.88.67-.21.05-.42.06-.62.02-.16-.03-.3-.08-.44-.16-.34-.19-.6-.5-.7-.9-.05-.21-.06-.42-.02-.62.1-.54.5-1,1.06-1.14.28-.07.57-.06.83.03.36.12.66.38.83.73.04.09.08.18.1.27.1.39.03.78-.15,1.09h0ZM97.94,234.83c-.33.57-.61.99-.75,1.18-.05.08-.12.14-.2.2-3.13,2.33-5.77,1.68-7.48.68-.51-.3-.56-.92-.26-1.32.13-.18.34-.31.61-.35h.07c.15-.02.28-.07.38-.15.36-.25.47-.74.29-1.13-.08-.17-.22-.31-.41-.41-.61-.3-1.18-.64-1.59-.9-.36-.23-.5-.68-.35-1.08,0-.01,0-.03.01-.04.11-.25.17-.51.22-.74,0-.03.01-.05.02-.08,0-.03.02-.05.02-.08.12-.45.58-.73,1.05-.63.94.21,1.76.24,2.48.12.86-.13,1.56-.45,2.15-.88,1.24-.91,1.92-2.28,2.27-3.27,0-.03.02-.05.03-.08,0-.01,0-.02,0-.03h0c.27-.52.98-.65,1.42-.22h0c2.99,2.88,1.21,7.1,0,9.21h.01ZM127.02,186.69c-2.24,2.01-2.84,4.53-2.72,8.46,0,.08.02.17.04.25,2.2,7.44,3.87,16.61-2.65,22.37-.02.02-.04.04-.06.06-3.16,2.47-6.84,3.21-10.34.89-3.51-2.33-4.19-6.05-3.11-9.91.66-3.46,4.78-5.11,7.7-6.46.3-.14.5-.42.56-.74,1.09-6.8,3.12-14.59,9.63-16.6,1.02-.31,1.74.97.94,1.69h.01Z"/>
        <path class="cls-3" d="M93.6,195.26c6.11-4.02,13.26-6.4,20.54-7.01,2.38-4.61,5.79-7.64,10.16-8.99.69-.21,1.38-.32,2.08-.32,2.87,0,5.49,1.81,6.51,4.5.9,2.35.47,4.92-1.06,6.83,3.13.73,6.41,1.03,8.5-1.18,1.71-1.81,1.77-4.55,2.18-7.01,1.67-9.99,10.76-17.65,20.67-19.77,9.9-2.11,20.31.52,29.38,5.03-3.48-5.51-8.37-10.12-14.06-13.28,8.67-3.53,18.57.35,26.48,5.36,7.91,5.01,15.4,11.33,24.57,13.25,5.42,1.13,11.06.62,16.52,1.55,10.58,1.81,19.79,8.9,30.45,10.19,1.58.19,3.25.24,4.7-.43,2.84-1.32,3.84-5.07,3.04-8.09-.8-3.03-2.94-5.49-5.01-7.84,10.97-2.7,21.31,5.56,32.18,8.63,2.81.79,7.6,1.37,12.85,1.89,3.98.4,8.22.76,12.06,1.17,4.32.46,8.13.97,10.53,1.64,0,0,29.97,7.28,52.01,34.25-4.29-38.35-61.53-52.54-92.13-56.06-.2-.02-.38-.1-.53-.24-10.71-9.34-26.82-11.13-40.56-13.95-.82-.17-1.47.7-1.07,1.43,4.13,7.57,6.37,17.03,4.55,26.41-.12.65-.73.89-1.24.76-.35-.09-.65-.37-.71-.82-.55-4.31-2.03-9.16-4.12-13.97h0c-4.23-9.73-10.97-19.35-17.6-24.19-.8-.59-.33-1.87.66-1.78.29.02.57.05.86.08,1.1.12,1.55-1.37.56-1.86-3.19-1.57-6.9-2.32-10.51-2.96-1.14-.2-1.07-1.86.09-1.95,1.87-.15,3.74-.2,5.62-.15,1.08.03,1.41-1.45.42-1.89-13.05-5.86-37.99-12.74-54.17-3.4-22.89,13.22-49.05,17-57.95,51.79-.11.42-.47.72-.91.74-4.55.23-7.26-.78-10.81-.83-2.96-.05-5.03-.19-7.83-.08-21.23.49-38.9,6.1-43.58,29.26-.72,2.73-2.23,8.98-4.46,12.05-.48.66.02,1.57.83,1.56,2.53-.06,4.06-.91,5.13-2.39.57-.8,1.83-.35,1.78.63-.18,3.53-.14,7.06.16,10.6.08.92,1.27,1.24,1.8.48.38-.55.75-1.09,1.13-1.64.04-.06.08-.12.13-.18.08-.11.17-.2.27-.27.03-.02.06-.04.09-.05,2.4-11.13,9.27-21.27,18.79-27.53l.03.03Z"/>
        <path class="cls-4" d="M199.11,313.58c-8.32-2.54-18.14-12-22.99-17.05-.72-.74-1.95-.02-1.65.97,4.13,13.81,4.69,27.63,1.5,42.09-.01.06-.03.11-.05.16-1.55,3.87-3.25,7.64-5.3,11.28-.08.14-.13.31-.13.48v6c0,.54.44.99.99.99h15.85c.54,0,.99-.44.99-.99v-6.29c.32-4.88,2.02-8.65,5.31-12.22.12-.13.2-.29.24-.47.61-2.93,1.21-4.68,1.82-7.08.21-.82,1.29-1.01,1.77-.31.4.58.86,1.1,1.39,1.57.64.58,1.67.12,1.65-.74-.02-.95.24-1.88.61-3.15.76-2.57,2.46-10.7-1.58-14.97-.12-.12-.26-.21-.42-.26h0Z"/>
        <path class="cls-4" d="M372.95,307.51c-4.27-2.24-15.42-7.23-39.16-32.7-.72-.77-1.98-.03-1.66.97,2.58,8.07,9.32,25.92,20.37,33.25.21.14.37.36.42.61,2.34,10.34,2.55,21.28-.79,30-3.33,8.72-4.62,4.97-7.6,11.57-.1.21-.12.46-.05.68.53,1.67,3.61,3.94,4.28,5.9.14.41.51.7.94.7h14.7c.55,0,.99-.44.99-.99v-6.02c0-.16.04-.32.11-.46,1.47-2.83,3.53-4.91,6.04-6.81.36-.27.48-.75.31-1.17-2.92-6.99.33-26.95,1.61-34.51.07-.42-.14-.84-.52-1.04v.02Z"/>
        <path class="cls-5" d="M354.34,257.58c-4.29-3.2-7.92-7.3-12.54-9.99-9.18-5.35-21.02-4.24-30.65.24-9.64,4.48-17.55,11.89-25.28,19.18-.95-2.06-1.9-4.11-2.85-6.17-1.5,6.49-8.57,10.18-15.18,11-6.61.81-13.36-.37-19.95.56-14.72,2.08-27.85,14.46-42.45,11.65-15.03-2.89-25.66-21.25-40.77-18.79,4.01,2.29,6.78,6.63,7.16,11.23-9.57-1.05-18.71-5.64-25.24-12.71-2.22-2.4-4.51-5.27-7.76-5.57-3.02-.29-5.71,1.78-8.03,3.72-8.17,6.83-26.8,27.59-20.44,35.98.47.62,1.43.48,1.71-.25,3.12-8.24,17.62-21.29,16.34-26.38-.11-.42.05-.87.42-1.1,7.23-4.56,10.18-1.21,16.09,4.2,9.53,8.7,13.28,11.63,25.4,14.1.44.09.87-.13,1.07-.53,1.52-3.1,4.6-5.42,6.19-6.46.51-.33,1.19-.14,1.44.42,6.34,13.98,22.24,23.89,35.17,30.94.18.1.33.25.42.45,4.13,8.76,5.53,18.15,4.25,27.76-.02.15-.07.29-.16.42-2.09,3.19-4.17,6.37-6.26,9.56-.11.16-.16.35-.16.54v5.97c0,.54.44.98.99.98h16.06c.54,0,.99-.44.99-.99v-6.1c0-.11.02-.22.05-.31,1.15-3.48,3.1-6.16,5.72-8.68.2-.19.31-.45.31-.73-.08-6.23-.17-12.45-.25-18.68,0-.85.99-1.32,1.63-.76,1.11.97,2.18,1.97,3.17,3.05.63.68,1.75.21,1.71-.71,0-.28-.03-.56-.06-.81-.31-3.15-1.01-5.96-2.28-8.61-.41-.86.5-1.74,1.34-1.31,1.57.81,3.25,1.29,5.12,1.22.13,0,.25,0,.36-.02.92-.09,1.23-1.28.46-1.8-.19-.13-.38-.27-.58-.44-4.2-3.37-5.62-8.43-6.21-13.64v-.07c-.53-3-1.62-5.36-3.4-7.52-.54-.65-.06-1.64.78-1.62,12.9.29,64.75-8.02,91.09-38.9.45-.52,1.29-.44,1.61.17,10.4,19.2,28.69,34.52,46.5,46.09.05.03.1.06.15.08,19.71,8.44,20.99,27.44,17.59,46.21-.03.14-.08.27-.17.39-1.63,2.31-3.26,4.62-4.88,6.94-.12.16-.18.36-.18.56,0,1.99-.02,3.97-.02,5.95,0,.55.44.99.98.99,3.93,0,10.58.02,14.51.02.54,0,.99-.44.99-.98v-.84c0-.12.02-.24.06-.35,1.49-3.99,4.1-7.37,7.33-10.11.22-.19.35-.46.36-.75.04-16.17-3.3-33.4-3.61-50.04,0-.39-.24-.73-.6-.88-12.66-5.55-20.93-17.59-26.98-29.84-1.35.13-2.69.26-4.02.33-8.71.43-17.54-2.26-24.53-7.46h-.03Z"/>
      </g>
      <g>
        <g>
          <path class="cls-4" d="M517.18,207.03v20.21c0,4.59,1.44,7.22,6.56,12.2,1.71,1.71,2.89,3.15,2.89,5.9s-1.05,4.72-4.72,4.72c-2.1,0-3.15-.66-6.17-1.44-3.28-.66-7.22-1.05-11.42-1.05-4.99,0-9.97.53-14.3,1.44-2.49.52-4.07,1.05-5.64,1.05-3.15,0-4.07-2.49-4.07-4.85,0-2.63,1.18-4.07,3.02-5.77,4.99-4.99,6.56-7.61,6.56-12.2v-49.86c0-4.59-1.57-7.22-6.56-12.2-1.84-1.71-3.02-3.15-3.02-5.77,0-2.36.92-4.85,4.07-4.85,1.57,0,3.15.52,5.64,1.05,3.68.79,6.96,1.05,9.84,1.05,7.87,0,13.78-2.1,22.05-2.1h12.99c17.58,0,31.1,8.66,31.1,27.03,0,12.73-6.56,20.86-17.32,24.01l9.71,21.65c1.84,4.33,3.94,7.09,6.69,8.92,5.12,3.41,6.3,6.17,6.3,8.4,0,3.54-2.75,5.51-5.91,5.51-1.97,0-3.28-.66-7.35-1.57-3.15-.66-5.77-.92-8.14-.92-2.89,0-5.64.39-9.18,1.18-2.89.79-4.46,1.31-5.9,1.31-3.15,0-5.91-2.36-5.91-5.38,0-2.23,2.23-4.59,2.49-6.56.52-3.41-1.05-6.56-2.89-10.89l-7.35-18.11c-.53-1.31-1.84-2.1-3.28-2.1h-.79.01ZM517.18,177.37v20.21h6.43c9.06,0,13.78-4.72,13.78-15.35,0-9.45-3.54-18.11-11.94-18.11-7.09,0-8.27,6.17-8.27,13.25Z"/>
          <path class="cls-4" d="M583.32,227.23v-49.86c0-4.59-1.57-7.22-6.56-12.2-1.84-1.71-3.02-3.15-3.02-5.77,0-2.36.92-4.85,4.07-4.85,1.57,0,3.15.52,5.64,1.05,3.68.79,6.96,1.05,9.84,1.05,7.87,0,13.78-2.1,22.05-2.1h26.38c3.54,0,6.04,1.84,5.64,6.04-.13,2.23-1.05,4.99-1.31,7.35-.26,3.41.92,6.3.66,9.84-.26,2.49-1.05,4.07-4.33,4.07-3.02,0-5.25-1.44-6.04-4.59l-.26-1.18c-2.1-8.14-7.61-11.94-16.01-11.94h-1.84c-6.17,0-7.61,5.64-7.61,13.25v20.21h4.86c4.46,0,7.22-2.89,9.97-5.77,3.94-3.94,5.38-5.25,8.01-5.25,2.36,0,4.85,1.05,4.85,4.2,0,1.44-.52,3.15-1.44,5.91-1.31,4.85-1.44,6.04-.26,9.97,1.05,3.41,1.71,4.59,1.71,6.56,0,3.68-2.1,4.85-4.72,4.85-2.76,0-4.2-1.31-8.14-5.25-2.75-2.89-5.51-5.77-9.97-5.77h-4.86v20.21c0,7.61,1.44,13.25,7.61,13.25h1.84c8.4,0,13.91-3.8,16.01-11.94l.26-1.18c.79-3.15,3.02-4.59,6.04-4.59,3.28,0,4.07,1.57,4.33,4.07.26,3.54-.92,6.43-.66,9.84.26,2.36,1.18,5.12,1.31,7.35.39,4.2-2.1,6.04-5.64,6.04h-26.38c-8.27,0-14.17-2.1-22.05-2.1-2.89,0-6.17.26-9.84,1.05-2.49.52-4.07,1.05-5.64,1.05-3.15,0-4.07-2.49-4.07-4.85,0-2.63,1.18-4.07,3.02-5.77,4.99-4.99,6.56-7.61,6.56-12.2v-.05Z"/>
          <path class="cls-4" d="M731.08,219.89c0,18.37-17.06,31.49-41.6,31.49-10.37,0-19.03-2.23-26.9-1.97-10.11.26-12.47-4.07-9.45-7.87,2.49-3.15,6.3-3.41,8.01-5.9,2.1-3.54,0-11.55,1.84-15.35.79-1.57,2.23-2.62,3.94-2.62,2.76,0,6.17,2.62,8.53,9.97,1.31,4.46,3.54,14.17,15.75,14.17,8.79,0,15.75-4.86,15.75-11.94,0-19.42-51.96-11.42-51.96-45.14,0-18.9,16.01-31.49,40.15-31.49,10.24,0,18.9,2.23,26.77,1.97,10.1-.26,12.47,3.94,9.45,7.87-2.49,3.15-6.3,3.41-7.87,5.9-2.23,3.54,0,11.55-1.97,15.35-.66,1.57-2.1,2.62-3.8,2.62-2.75,0-6.17-2.62-8.53-9.97-1.44-4.46-3.67-14.17-15.61-14.17-8,0-14.3,4.46-14.3,11.15,0,19.29,51.83,13.78,51.83,45.93h-.03Z"/>
          <path class="cls-4" d="M783.97,153.22c25.98,0,46.84,18.63,46.84,49.08s-20.86,49.08-46.84,49.08-47.63-18.63-47.63-49.08,21.39-49.08,47.63-49.08ZM783.97,241.8c10.23,0,18.24-8.79,18.24-39.5s-8-39.5-18.24-39.5-19.03,8.79-19.03,39.5,8.66,39.5,19.03,39.5Z"/>
          <path class="cls-4" d="M867.83,227.23c0,7.61,1.44,13.25,7.61,13.25h1.84c8.4,0,13.91-3.8,16.01-11.94l.26-1.18c.79-3.15,3.02-4.59,6.04-4.59,3.28,0,4.07,1.57,4.33,4.07.26,3.54-.92,6.43-.66,9.84.26,2.36,1.18,5.12,1.31,7.35.39,4.2-2.1,6.04-5.64,6.04h-26.38c-8.27,0-14.17-2.1-22.05-2.1-2.89,0-6.17.26-9.84,1.05-2.49.52-4.07,1.05-5.64,1.05-3.15,0-4.07-2.49-4.07-4.85,0-2.63,1.18-4.07,3.02-5.77,4.99-4.99,6.56-7.61,6.56-12.2v-49.86c0-4.59-1.58-7.22-6.56-12.2-1.84-1.71-3.02-3.15-3.02-5.77,0-2.36.92-4.85,4.07-4.85,1.57,0,3.15.52,5.64,1.05,4.33.92,9.32,1.44,14.3,1.44,4.2,0,8.14-.39,11.42-1.05,3.02-.79,4.07-1.44,6.17-1.44,3.68,0,4.72,2.1,4.72,4.59,0,2.89-1.18,4.33-2.89,6.04-5.12,4.99-6.56,7.61-6.56,12.2v49.86-.03Z"/>
          <path class="cls-4" d="M942.63,251.38c-21.39,0-32.02-10.63-32.02-32.02v-41.99c0-4.59-1.57-7.22-6.56-12.2-1.84-1.71-3.02-3.15-3.02-5.77,0-2.36.92-4.85,4.07-4.85,1.57,0,3.15.52,5.64,1.05,4.33.92,9.32,1.44,14.3,1.44,4.2,0,8.14-.39,11.42-1.05,3.02-.79,4.07-1.44,6.17-1.44,3.67,0,4.72,2.1,4.72,4.59,0,2.89-1.18,4.33-2.89,6.04-5.12,4.99-6.56,7.61-6.56,12.2v45.4c0,9.18,4.46,14.96,13.65,14.96s13.65-5.77,13.65-14.96v-45.4c0-4.59-2.89-7.22-5.77-9.97-3.94-3.94-5.25-5.38-5.25-8.01,0-2.36,1.05-4.85,4.2-4.85,1.44,0,3.15.52,5.9,1.44,2.63.66,4.2,1.05,5.64,1.05,1.31,0,2.49-.26,4.33-.79,3.41-1.05,4.59-1.71,6.56-1.71,3.68,0,4.86,2.1,4.86,4.59,0,2.89-1.31,4.33-5.25,8.27-2.89,2.75-5.77,5.38-5.77,9.97v41.99c0,21.39-10.63,32.02-32.02,32.02h0Z"/>
          <path class="cls-4" d="M1049.05,239.44c1.84,1.71,3.02,3.15,3.02,5.9s-1.05,4.72-4.72,4.72c-2.1,0-3.15-.66-6.17-1.44-3.28-.66-7.22-1.05-11.42-1.05-4.99,0-9.97.53-14.3,1.44-2.49.52-4.2,1.05-5.64,1.05-3.15,0-4.07-2.49-4.07-4.85,0-2.63,1.18-4.07,3.02-5.77,4.99-4.99,6.43-7.61,6.43-12.2v-63.12h-.79c-8.27,0-13.91,3.8-15.88,11.94l-.26,1.18c-.92,3.15-3.02,4.59-6.04,4.59-3.28,0-4.07-1.58-4.33-4.07-.39-3.54.92-6.43.66-9.84-.26-2.36-1.31-5.12-1.44-7.35-.39-4.2,2.23-6.04,5.77-6.04h17.58c6.95,0,12.2,2.1,18.37,2.1s11.55-2.1,18.5-2.1h17.58c3.54,0,6.17,1.84,5.77,6.04-.13,2.23-1.18,4.99-1.44,7.35-.26,3.41.92,6.3.66,9.84-.26,2.49-1.05,4.07-4.33,4.07-3.02,0-5.12-1.44-6.04-4.59l-.26-1.18c-1.97-8.14-7.61-11.94-15.88-11.94h-.92v63.12c0,4.59,1.58,7.22,6.56,12.2h0Z"/>
          <path class="cls-4" d="M1084.09,227.23v-49.86c0-4.59-1.57-7.22-6.56-12.2-1.84-1.71-3.02-3.15-3.02-5.77,0-2.36.92-4.85,4.07-4.85,1.57,0,3.15.52,5.64,1.05,3.68.79,6.96,1.05,9.84,1.05,7.87,0,13.78-2.1,22.05-2.1h26.38c3.54,0,6.04,1.84,5.64,6.04-.13,2.23-1.05,4.99-1.31,7.35-.26,3.41.92,6.3.66,9.84-.26,2.49-1.05,4.07-4.33,4.07-3.02,0-5.25-1.44-6.04-4.59l-.26-1.18c-2.1-8.14-7.61-11.94-16.01-11.94h-1.84c-6.17,0-7.61,5.64-7.61,13.25v20.21h4.86c4.46,0,7.22-2.89,9.97-5.77,3.94-3.94,5.38-5.25,8.01-5.25,2.36,0,4.85,1.05,4.85,4.2,0,1.44-.52,3.15-1.44,5.91-1.31,4.85-1.44,6.04-.26,9.97,1.05,3.41,1.71,4.59,1.71,6.56,0,3.68-2.1,4.85-4.72,4.85-2.76,0-4.2-1.31-8.14-5.25-2.75-2.89-5.51-5.77-9.97-5.77h-4.86v20.21c0,7.61,1.44,13.25,7.61,13.25h1.84c8.4,0,13.91-3.8,16.01-11.94l.26-1.18c.79-3.15,3.02-4.59,6.04-4.59,3.28,0,4.07,1.57,4.33,4.07.26,3.54-.92,6.43-.66,9.84.26,2.36,1.18,5.12,1.31,7.35.39,4.2-2.1,6.04-5.64,6.04h-26.38c-8.27,0-14.17-2.1-22.05-2.1-2.89,0-6.17.26-9.84,1.05-2.49.52-4.07,1.05-5.64,1.05-3.15,0-4.07-2.49-4.07-4.85,0-2.63,1.18-4.07,3.02-5.77,4.99-4.99,6.56-7.61,6.56-12.2v-.05Z"/>
        </g>
        <g>
          <path class="cls-5" d="M501.92,292.94h.19c0,1.95,2.2,2.76,5.02,2.76h20.91c2.14,0,3.83-.82,3.83-2.76h.19v10.55h-.19c0-1.95-1.7-2.76-3.83-2.76h-20.91c-2.82,0-5.02.82-5.02,2.76h-.19v-10.55Z"/>
          <path class="cls-5" d="M586.05,320.31v-.31c2.01,0,3.58-1.32,3.58-5.33v-13h-15.07v12.93c0,4.08,1.57,5.4,3.58,5.4v.31h-17.2v-.31c2.01,0,3.58-1.32,3.58-5.33v-32.58c0-4.08-1.57-5.4-3.58-5.4v-.31h17.2v.31c-2.01,0-3.58,1.32-3.58,5.33v11.49h15.07v-11.43c0-4.08-1.57-5.4-3.58-5.4v-.31h17.2v.31c-2.01,0-3.58,1.32-3.58,5.33v32.58c0,4.08,1.57,5.4,3.58,5.4v.31h-17.2Z"/>
          <path class="cls-5" d="M622.53,284.53v9.29h7.97c4.08,0,5.4-1.57,5.4-3.58h.31l1.07,15.32-.31-.06c-.5-2.13-1.57-3.52-5.21-3.52h-9.23v10.11h8.98c5.15,0,7.78-.69,9.35-4.27h.31l-1.51,12.49h-30.7v-.31c2.01,0,3.52-1.32,3.52-5.4v-32.58c0-4.02-1.51-5.33-3.52-5.33v-.31h30.39l1,11.24h-.31c-.5-2.57-3.45-3.08-6.4-3.08h-11.11,0Z"/>
          <path class="cls-5" d="M644.39,320.31v-.31c2.01,0,4.02-1.32,5.33-5.4l10.8-32.58c1.38-4.02.25-5.33-1.76-5.33v-.31h16.63v.31c-2.01,0-3.01,1.32-1.63,5.33l10.8,32.58c1.32,4.08,3.33,5.4,5.33,5.4v.31h-17.33v-.31c2.01,0,3.01-1.32,1.7-5.4l-.94-2.82c-2.01.25-4.65.38-7.22.38-2.07,0-4.14-.06-5.84-.25l-.94,2.7c-1.32,4.08-.31,5.4,1.7,5.4v.31h-16.63ZM662.46,305.12c2.76.19,6.03.13,8.6-.06l-4.27-12.93-4.33,13h0Z"/>
          <path class="cls-5" d="M697.5,320c2.01,0,3.58-1.32,3.58-5.4v-30.32h-4.08c-5.15,0-7.72,1-9.29,4.58h-.31l1.51-12.49h34.46l1.44,12.49h-.25c-1.63-3.58-4.21-4.58-9.35-4.58h-4.08v31.14c.19,3.45,1.7,4.58,3.58,4.58v.31h-17.2v-.31h-.01Z"/>
          <path class="cls-5" d="M729.59,320.31v-.31c1.95,0,3.52-1.32,3.52-5.4v-32.58c0-4.02-1.57-5.33-3.52-5.33v-.31h17.14v.31c-2.01,0-3.58,1.32-3.58,5.33v32.58c0,4.08,1.57,5.4,3.58,5.4v.31h-17.14Z"/>
          <path class="cls-5" d="M752.44,320.31v-.31c1.95,0,3.52-1.32,3.52-5.4v-32.58c0-4.02-1.57-5.33-3.52-5.33v-.31h16.83v.31c-2.01,0-3.58,1.32-3.58,5.33,0,5.78,8.79,9.42,15,16.01v-16.01c0-4.02-1.51-5.33-3.51-5.33v-.31h16.82v.31c-2.01,0-3.58,1.32-3.58,5.33v32.58c0,4.08,1.57,5.4,3.58,5.4v.31h-16.82v-.31c2.01,0,3.51-1.32,3.51-5.4,0-6.91-8.6-11.3-15-17.83v17.83c0,4.08,1.57,5.4,3.58,5.4v.31h-16.83Z"/>
          <path class="cls-5" d="M831.3,303.43v-.44c-7.6,0-11.3.5-12.74,2.51h-.31l1.38-9.23h20.34v24.04h-.31c-.75-2.2-3.14-3.39-5.4-3.39-1.07,0-2.13.25-2.95.88-2.82,1.88-6.4,3.01-10.92,3.01-13.06,0-22.47-7.16-22.47-22.47s10.99-22.48,22.98-22.48c9.6,0,15.38,4.27,18.58,9.35.82,1.25,2.2,3.08,3.08,2.82l.06.31-14.44,4.02-.06-.31.5-.25c.94-.5.94-2.39.63-3.45-.82-2.45-3.45-4.33-7.53-4.33-8.04,0-13.12,4.96-13.12,14.31s5.4,13.94,12.12,13.94c5.4,0,10.36-2.89,10.61-8.85h-.03Z"/>
          <path class="cls-5" d="M907.9,320c1.07,0,2.45-1.19.69-2.7l-3.95-3.33c-4.52,5.71-9.17,7.85-15.88,7.85-9.79,0-16.95-4.77-16.95-12.74,0-6.21,3.89-10.48,12.05-12.62l-1.63-1.38c-3.14-2.64-4.27-6.15-4.27-8.85,0-5.59,5.34-10.55,14.94-10.55,7.72,0,14.94,3.08,14.94,10.67,0,5.15-4.33,9.23-8.66,11.17l5.15,4.52c3.08-4.83,7.78-11.36,15.82-12.56l4.58,10.17h-.31c-1-.88-2.13-1.25-3.39-1.25-4.02,0-8.91,4.14-11.49,8.04l10.61,9.17c2.39,2.07,5.27,4.39,7.47,4.39v.31h-19.71v-.31h0ZM889.51,301.23c-4.52,1.57-7.66,3.83-7.66,7.16,0,3.96,3.64,5.65,7.91,5.65,3.58,0,6.78-2.2,9.23-4.83l-9.48-7.97h0ZM899.05,285.6c-.25-2.32-2.2-4.39-5.59-4.39s-5.21,2.2-5.21,4.46c0,1.51.82,3.26,2.26,4.46l3.45,2.95c3.14-1.51,5.46-4.33,5.09-7.47h0Z"/>
          <path class="cls-5" d="M955.94,320.31v-.31c2.01,0,4.02-1.32,5.34-5.4l10.8-32.58c1.38-4.02.25-5.33-1.76-5.33v-.31h16.63v.31c-2.01,0-3.01,1.32-1.63,5.33l10.8,32.58c1.32,4.08,3.33,5.4,5.34,5.4v.31h-17.33v-.31c2.01,0,3.01-1.32,1.7-5.4l-.94-2.82c-2.01.25-4.65.38-7.22.38-2.07,0-4.14-.06-5.84-.25l-.94,2.7c-1.32,4.08-.31,5.4,1.7,5.4v.31h-16.65ZM974.02,305.12c2.76.19,6.03.13,8.6-.06l-4.27-12.93-4.33,13h0Z"/>
          <path class="cls-5" d="M1005.61,320.31v-.31c1.95,0,3.52-1.32,3.52-5.4v-32.58c0-4.02-1.57-5.33-3.52-5.33v-.31h17.14v.31c-2.01,0-3.58,1.32-3.58,5.33v32.58c0,4.08,1.57,5.4,3.58,5.4v.31h-17.14Z"/>
          <path class="cls-5" d="M1028.4,320c2.01,0,3.58-1.32,3.58-5.4v-32.58c0-4.08-1.57-5.33-3.58-5.33v-.31h23.23c8.6,0,14.75,4.08,14.75,13.25,0,6.59-3.64,9.79-8.73,11.17,4.71,2.01,6.97,6.28,7.72,12.24.31,2.7.88,6.97,3.83,6.97v.31h-16.07v-.31c2.01,0,2.07-1.82,2.07-5.27,0-6.72-2.95-10.42-9.1-10.42h-4.08v10.86c0,3.64,1.57,4.83,3.58,4.83v.31h-17.2v-.31h0ZM1048.61,284.53h-6.59v11.61h6.84c4.39,0,6.84-1.76,6.84-5.65s-2.76-5.96-7.09-5.96Z"/>
          <path class="cls-5" d="M1098.1,292.94h.19c0,1.95,2.2,2.76,5.02,2.76h20.91c2.14,0,3.83-.82,3.83-2.76h.19v10.55h-.19c0-1.95-1.7-2.76-3.83-2.76h-20.91c-2.82,0-5.02.82-5.02,2.76h-.19v-10.55Z"/>
        </g>
      </g>
    </g>
  </g>
</svg>